Coordinates
version=1
nRows=18
nColumns=26
inDegrees=yes

Units are S.I. units (second, meters, Newtons, ...)
Angles are in degrees.

endheader
time	pelvis_tilt	pelvis_list	pelvis_rotation	pelvis_tx	pelvis_ty	pelvis_tz	hip_flexion_r	hip_adduction_r	hip_rotation_r	knee_angle_r	knee_angle_r_beta	ankle_angle_r	subtalar_angle_r	mtp_angle_r	hip_flexion_l	hip_adduction_l	hip_rotation_l	knee_angle_l	knee_angle_l_beta	ankle_angle_l	subtalar_angle_l	mtp_angle_l	lumbar_extension	lumbar_bending	lumbar_rotation
      0.86800000	     -4.79365785	     -8.44098404	     -7.39150687	      1.06167507	      0.97155144	      0.18289919	     33.63842050	      4.76584877	    -25.82510997	     29.53141138	      0.51542036	     -4.90426300	      0.00000000	      0.00000000	    -16.79767252	     -1.57484042	     -8.94916002	     89.87440433	      1.56860427	    -18.17119074	      0.00000000	      0.00000000	    -10.37066563	     13.69554037	     -4.14496242
      0.87200000	     -4.46615043	     -8.23664615	     -7.64176541	      1.08760932	      0.96941423	      0.18311996	     32.36507010	      4.79460915	    -24.48468068	     30.71563321	      0.53608893	     -0.64799993	      0.00000000	      0.00000000	    -15.87222831	     -1.64624313	     -9.13836593	     93.01402242	      1.62340094	    -16.62000923	      0.00000000	      0.00000000	    -10.85052091	     13.46158228	     -3.18475000
      0.87600000	     -4.24914451	     -7.89617686	     -7.90964380	      1.11334844	      0.96698408	      0.18324286	     31.32940104	      4.67562144	    -23.64332253	     32.36757138	      0.56492069	      3.37337125	      0.00000000	      0.00000000	    -14.71680258	     -1.52234264	     -9.15662151	     96.12267167	      1.67765711	    -14.96667730	      0.00000000	      0.00000000	    -11.20247786	     13.09584891	     -2.23297857
      0.88000000	     -3.96686071	     -7.88014179	     -7.99577911	      1.13912776	      0.96489974	      0.18381076	     30.09885875	      5.02746145	    -22.03063259	     33.84618721	      0.59072741	      6.91232997	      0.00000000	      0.00000000	    -13.60855996	     -1.85262267	     -9.00399833	     99.21184213	      1.73157330	    -13.41888550	      0.00000000	      0.00000000	    -11.65906816	     13.02789535	     -1.38360029
      0.88400000	     -3.94132937	     -8.05119321	     -7.86446377	      1.16399562	      0.96251235	      0.18404943	     29.22642452	      5.44754886	    -20.87038592	     35.34442620	      0.61687661	      9.74301116	      0.00000000	      0.00000000	    -12.01431493	     -2.41503798	     -8.45199445	    102.52816635	      1.78945408	    -11.80424671	      0.00000000	      0.00000000	    -11.93475125	     13.21242368	     -0.69739355
      0.88800000	     -3.67861602	     -7.92099525	     -8.62545056	      1.18834893	      0.96095188	      0.18506542	     28.37711896	      5.80386227	    -18.96358236	     37.22548456	      0.64970727	     11.83617344	      0.00000000	      0.00000000	    -10.66139914	     -2.43438122	     -8.67943763	    105.46156807	      1.84065160	    -10.53583304	      0.00000000	      0.00000000	    -12.71882347	     12.92523363	      0.85790734
      0.89200000	     -3.45761579	     -7.89063238	     -8.82234887	      1.21242934	      0.95936593	      0.18577615	     27.77581778	      5.80975510	    -17.76313261	     39.51119500	      0.68960044	     14.29204044	      0.00000000	      0.00000000	     -9.03606190	     -2.62979151	     -8.17443598	    108.50118247	      1.89370288	     -9.20618095	      0.00000000	      0.00000000	    -13.39858364	     12.75400974	      1.75418168
      0.89600000	     -3.23209233	     -7.91514805	     -9.02607473	      1.23607598	      0.95780976	      0.18655808	     27.22098723	      5.77707612	    -16.74635776	     41.87622551	      0.73087801	     16.09610890	      0.00000000	      0.00000000	     -7.31678475	     -2.91505009	     -7.57307997	    111.51566839	      1.94631558	     -8.03437558	      0.00000000	      0.00000000	    -14.18658541	     12.63136310	      2.70059547
      0.90000000	     -2.74015911	     -7.86313960	     -9.12515120	      1.25994848	      0.95672496	      0.18757314	     26.24509421	      5.59561117	    -15.91778013	     44.03719179	      0.76859399	     18.07618609	      0.00000000	      0.00000000	     -5.82286389	     -3.08648327	     -6.84415919	    114.28627598	      1.99467181	     -6.76221198	      0.00000000	      0.00000000	    -15.23887318	     12.28628147	      3.45888603
      0.90400000	     -2.29520635	     -7.98690019	     -9.33764274	      1.28380002	      0.95590967	      0.18843702	     25.17926201	      5.56344553	    -15.22892350	     45.94936595	      0.80196773	     19.66862751	      0.00000000	      0.00000000	     -4.24656545	     -3.41911351	     -6.13463333	    116.87478722	      2.03984985	     -5.77660856	      0.00000000	      0.00000000	    -16.36471224	     12.11143934	      4.32649925
      0.90800000	     -1.84063105	     -8.21570651	     -9.58684510	      1.30779673	      0.95556225	      0.18923906	     23.80864127	      5.75885064	    -14.28586590	     47.29213247	      0.82540342	     21.11696274	      0.00000000	      0.00000000	     -2.63972378	     -3.86435465	     -5.36750196	    119.25418954	      2.08137825	     -4.71978482	      0.00000000	      0.00000000	    -17.53557488	     12.03471897	      5.17443535
      0.91200000	     -1.59443118	     -8.37318459	     -9.90811616	      1.33185039	      0.95539613	      0.19015238	     22.48933422	      5.98380377	    -13.17032431	     48.32448323	      0.84342134	     22.17177263	      0.00000000	      0.00000000	     -0.72605113	     -4.35585509	     -4.60270601	    121.42562688	      2.11927699	     -3.73011253	      0.00000000	      0.00000000	    -18.45011795	     11.88134332	      6.01358422
      0.91600000	     -1.41962379	     -8.68002542	    -10.21545164	      1.35671119	      0.95570014	      0.19098731	     20.90860437	      6.40667169	    -11.97898518	     48.82569375	      0.85216912	     22.75737388	      0.00000000	      0.00000000	      1.19465391	     -4.99055235	     -3.72323982	    123.26678794	      2.15141131	     -3.08871781	      0.00000000	      0.00000000	    -19.17482591	     11.89762732	      6.73416558
      0.92000000	     -1.66271201	     -9.01798436	    -10.60002171	      1.38153053	      0.95576960	      0.19191108	     19.62085225	      6.92114612	    -10.82892213	     49.00532082	      0.85530420	     23.66594334	      0.00000000	      0.00000000	      3.56206169	     -5.87545641	     -2.96452466	    124.96973839	      2.18113340	     -1.28101630	      0.00000000	      0.00000000	    -19.44389261	     12.03976189	      7.67284752
      0.92400000	     -1.87787556	     -8.98387875	    -10.85182581	      1.40651952	      0.95599974	      0.19260414	     18.26630126	      6.93971830	     -9.85243218	     49.04088140	      0.85592485	     24.07286692	      0.00000000	      0.00000000	      6.07237513	     -6.26485308	     -2.00082863	    126.42360191	      2.20650811	      0.17248989	      0.00000000	      0.00000000	    -19.55338905	     11.81296980	      8.36172077
      0.92800000	     -2.20653492	     -8.74042033	    -11.06943370	      1.43162237	      0.95629005	      0.19324420	     16.97530635	      6.69569089	     -9.06437712	     48.95028627	      0.85434367	     24.26389178	      0.00000000	      0.00000000	      8.80457275	     -6.41196579	     -1.09824408	    127.64486912	      2.22782324	      1.84623277	      0.00000000	      0.00000000	    -19.42393196	     11.40176009	      9.04543697
      0.93200000	     -2.39533332	     -8.21432121	    -11.20301055	      1.45686283	      0.95670997	      0.19386008	     15.50167053	      6.09975709	     -8.32667282	     48.69570778	      0.84990043	     24.29016686	      0.00000000	      0.00000000	     11.51904655	     -6.20866437	     -0.18106822	    128.65088687	      2.24538156	      3.34158888	      0.00000000	      0.00000000	    -19.26879032	     10.65932476	      9.62179028
      0.93600000	     -2.71084592	     -7.61041238	    -11.22741338	      1.48233746	      0.95701861	      0.19434083	     14.08709909	      5.40270156	     -7.67376458	     48.22662033	      0.84171331	     24.20534623	      0.00000000	      0.00000000	     14.39092519	     -5.84034817	      0.84380220	    129.48509149	      2.25994118	      4.79128555	      0.00000000	      0.00000000	    -18.82738443	      9.92054816	     10.09635981
